<?xml version="1.0" encoding="UTF-8"?>
<svg width="19px" height="16px" viewBox="0 0 19 16" version="1.1" xmlns="http://www.w3.org/2000/svg" xmlns:xlink="http://www.w3.org/1999/xlink">
    <!-- Generator: Sketch 50.2 (55047) - http://www.bohemiancoding.com/sketch -->
    <title>basket</title>
    <desc>Created with Sketch.</desc>
    <defs></defs>
    <g id="Symbols" stroke="none" stroke-width="1" fill="none" fill-rule="evenodd">
        <g id="Basket_default" transform="translate(-13.000000, -14.000000)" stroke="#4D3636">
            <path d="M30.7721959,20.472357 L28.1663242,28.326459 C27.9627649,28.939987 27.3890547,29.354102 26.7426392,29.354102 L17.6061428,29.354102 C16.9597273,29.354102 16.3860172,28.939987 16.1824579,28.326459 L13.5765862,20.472357 C13.3157106,19.6860776 13.7416346,18.8371906 14.5279141,18.5763151 C14.6802687,18.5257661 14.8397496,18.5 15.0002711,18.5 L29.348511,18.5 C30.1769381,18.5 30.848511,19.1715729 30.848511,20 C30.848511,20.1605215 30.8227449,20.3200024 30.7721959,20.472357 Z M26.5409411,18.5036076 L18.4589284,18.5036076 L18.5398947,17.9333247 C18.8181492,15.9734477 20.5019756,14.5 22.5,14.5 C24.5009754,14.5 26.1852365,15.9724721 26.4608968,17.9340255 L26.5409411,18.5036076 Z" id="basket"></path>
        </g>
    </g>
</svg>